<?xml version="1.0" standalone="no"?>
<!DOCTYPE svg PUBLIC "-//W3C//DTD SVG 20010904//EN"
 "http://www.w3.org/TR/2001/REC-SVG-20010904/DTD/svg10.dtd">
<svg version="1.0" xmlns="http://www.w3.org/2000/svg"
 width="200.000000pt" height="200.000000pt" viewBox="0 0 200.000000 200.000000"
 preserveAspectRatio="xMidYMid meet">
<metadata>
Created by potrace 1.14, written by Peter Selinger 2001-2017
</metadata>
<g transform="translate(0.000000,200.000000) scale(0.100000,-0.100000)"
fill="#000000" stroke="none">
<path d="M257 1753 c-12 -7 -28 -12 -35 -13 -22 0 -76 -61 -95 -105 -10 -22
-21 -47 -26 -55 -11 -23 -5 -179 9 -230 18 -61 21 -73 22 -87 1 -7 5 -13 10
-13 4 0 8 -8 8 -18 0 -23 75 -151 105 -179 13 -12 29 -30 37 -41 7 -10 40 -39
73 -65 33 -27 68 -55 78 -63 10 -8 29 -20 43 -26 24 -11 34 -38 13 -38 -5 0
-7 -4 -4 -10 3 -5 0 -10 -7 -10 -33 0 -145 -140 -176 -220 -30 -76 -35 -133
-18 -201 12 -45 66 -149 66 -126 0 3 11 -4 24 -16 37 -34 113 -57 188 -57 109
0 233 51 340 141 26 21 51 39 57 39 6 0 26 -13 44 -30 19 -16 38 -30 41 -30 4
0 15 -8 26 -17 10 -10 36 -27 57 -38 21 -11 40 -22 43 -25 3 -3 12 -7 20 -9 8
-2 38 -10 65 -18 63 -17 166 -14 221 6 141 54 205 212 148 367 -31 86 -65 135
-140 208 l-65 62 48 31 c26 18 73 54 103 82 30 28 59 51 63 51 5 0 5 4 2 10
-3 6 -2 10 3 10 23 0 137 190 146 242 1 7 10 39 19 71 20 66 27 186 15 237 -5
19 -10 41 -10 48 -1 6 -5 12 -10 12 -4 0 -8 6 -8 13 0 22 -62 79 -109 100 -48
21 -141 28 -181 14 -14 -5 -36 -11 -50 -14 -13 -2 -27 -8 -30 -12 -3 -5 -15
-11 -27 -15 -64 -20 -243 -221 -243 -273 0 -7 -4 -13 -8 -13 -8 0 -32 -57 -31
-74 0 -5 -3 -12 -8 -15 -5 -3 -17 -28 -28 -56 -10 -27 -21 -52 -24 -55 -3 -3
-21 -38 -40 -77 -31 -64 -51 -90 -51 -65 0 5 -8 17 -18 28 -10 10 -21 26 -25
34 -4 8 -16 29 -27 45 -11 17 -22 37 -26 45 -3 8 -11 26 -17 40 -6 14 -11 27
-12 30 -1 3 -10 23 -20 45 -10 22 -19 42 -20 45 -7 29 -99 171 -133 205 -42
43 -132 111 -132 100 0 -4 -7 1 -16 9 -8 9 -20 14 -25 11 -5 -4 -9 -2 -9 3 0
9 -24 18 -80 29 -50 10 -132 8 -153 -4z m155 -118 c47 -10 129 -59 174 -103
52 -52 84 -90 84 -102 0 -5 6 -13 14 -17 16 -10 40 -53 32 -60 -3 -3 -11 -2
-18 4 -41 30 -188 74 -264 79 -28 2 -55 4 -60 5 -5 1 -11 1 -14 0 -10 -4 -86
-13 -115 -15 -29 -1 -30 0 -28 40 3 57 9 88 24 116 13 25 46 51 67 55 8 1 16
3 18 6 5 5 39 2 86 -8z m1235 -8 c42 -22 62 -57 64 -113 2 -76 0 -106 -9 -100
-18 11 -127 28 -177 27 -48 0 -118 -11 -130 -21 -6 -5 -14 -7 -18 -4 -3 3 -28
-5 -56 -19 -27 -13 -47 -19 -44 -13 4 6 -1 5 -10 -3 -45 -36 -25 24 30 94 78
99 145 149 211 161 8 1 16 4 18 6 9 10 94 -1 121 -15z m-1135 -303 c7 -5 15
-9 18 -9 18 -1 90 -30 90 -37 0 -4 6 -8 13 -8 34 0 194 -141 244 -214 15 -22
34 -47 41 -55 19 -20 0 -29 -69 -35 -62 -5 -141 -25 -150 -39 -3 -5 -10 -8
-15 -8 -5 0 -16 -1 -25 -4 -8 -3 -35 6 -60 20 -24 13 -54 29 -66 35 -13 5 -23
14 -23 20 0 6 -4 8 -10 5 -5 -3 -10 -2 -10 4 0 5 -8 12 -18 15 -24 8 -98 79
-137 131 -16 22 -32 42 -35 45 -8 6 -36 69 -44 96 -7 22 8 34 46 39 10 1 21 4
24 8 8 8 171 0 186 -9z m1146 -3 c30 -16 22 -46 -35 -133 -46 -69 -101 -128
-163 -172 -19 -14 -40 -29 -46 -35 -6 -5 -34 -22 -64 -39 -49 -28 -54 -29 -86
-16 -19 8 -34 11 -34 8 0 -4 -6 -2 -13 4 -12 10 -62 21 -123 26 -38 4 -47 16
-28 37 9 10 14 19 10 19 -6 0 50 90 84 134 50 66 157 146 196 146 8 0 14 4 14
8 0 27 242 38 288 13z m-422 -511 c21 -11 30 -18 19 -16 -26 4 -75 24 -75 31
0 9 16 5 56 -15z m-190 -45 c-8 -73 -26 -145 -37 -145 -5 0 -8 -3 -7 -7 3 -19
-22 -62 -34 -58 -27 11 -72 128 -76 198 l-4 67 82 0 82 0 -6 -55z m304 -70
c47 -13 59 -21 82 -58 42 -67 55 -109 56 -174 0 -48 -4 -65 -23 -87 -45 -52
-145 -67 -213 -32 -17 9 -32 13 -32 9 0 -5 -4 -3 -8 2 -4 6 -27 21 -52 34 -25
14 -55 34 -67 46 l-23 20 48 95 c28 56 49 111 50 135 5 76 5 76 70 49 31 -13
82 -30 112 -39z m-580 13 c0 -41 21 -125 37 -151 4 -7 8 -14 8 -17 1 -8 39
-64 48 -71 15 -11 -3 -34 -51 -66 -73 -50 -138 -74 -205 -78 -97 -5 -136 17
-162 91 -21 61 14 174 78 256 7 9 28 20 45 23 17 3 64 16 104 29 99 33 98 33
98 -16z"/>
<path d="M830 1503 c0 -12 38 -48 45 -41 3 2 -6 15 -20 28 -14 13 -25 19 -25
13z"/>
<path d="M1066 1485 c-10 -8 -24 -16 -30 -18 -6 -2 -8 -8 -4 -12 4 -4 14 0 22
8 9 8 21 17 28 20 7 2 11 7 8 10 -3 3 -14 -1 -24 -8z"/>
<path d="M890 1460 c0 -6 10 -11 23 -12 64 -4 105 -3 101 3 -2 4 -20 5 -39 3
-20 -2 -47 1 -61 6 -15 6 -24 6 -24 0z"/>
</g>
</svg>
